<svg version="1.1" id="Layer_1" xmlns="http://www.w3.org/2000/svg"
	xmlns:xlink="http://www.w3.org/1999/xlink" x="0px" y="0px"
	viewBox="0 0 51.3 44" style="enable-background:new 0 0 51.3 44;" xml:space="preserve">
<style type="text/css">
	.st0{filter:url(#Adobe_OpacityMaskFilter);}
	.st1{fill-rule:evenodd;clip-rule:evenodd;fill:#FFFFFF;}
	.st2{mask:url(#d_1_);fill:#0996C7;}
	.st3{fill:#0996C7;}
	.st4{filter:url(#Adobe_OpacityMaskFilter_1_);}
	.st5{mask:url(#f_1_);fill:#0996C7;}
</style>
<g>
	<g transform="translate(25)">
		<defs>
			<filter id="Adobe_OpacityMaskFilter" filterUnits="userSpaceOnUse" x="0.8" y="0" width="25.5" height="32.8">
				<feColorMatrix  type="matrix" values="1 0 0 0 0  0 1 0 0 0  0 0 1 0 0  0 0 0 1 0"/>
			</filter>
		</defs>
		<mask maskUnits="userSpaceOnUse" x="0.8" y="0" width="25.5" height="32.8" id="d_1_">
			<g class="st0">
				<path id="c_1_" class="st1" d="M0,0h27v33H0V0z"/>
			</g>
		</mask>
		<path class="st2" d="M14,0L2.6,31.4c-0.3,0.8-1,1.3-1.8,1.4v0h12.1c0.9,0,1.8-0.6,2.1-1.4L26.3,0H14z"/>
	</g>
	<path class="st3" d="M24.8,32.4c0.7,0,1.3-0.3,1.7-0.9c0-0.1,0.2-0.2,0.3-0.5l4.2-11.5l-2.5-6.7c-0.4-1.1-1.7-1.6-2.7-1.1
		c-0.4,0.1-0.7,0.4-0.9,0.7c0,0.1-0.2,0.3-0.3,0.5l-4.2,11.5l2.5,6.8C23.2,31.9,23.9,32.4,24.8,32.4"/>
	<g transform="translate(-1 10)">
		<defs>
			<filter id="Adobe_OpacityMaskFilter_1_" filterUnits="userSpaceOnUse" x="1" y="1" width="25.7" height="32.8">
				<feColorMatrix  type="matrix" values="1 0 0 0 0  0 1 0 0 0  0 0 1 0 0  0 0 0 1 0"/>
			</filter>
		</defs>
		<mask maskUnits="userSpaceOnUse" x="1" y="1" width="25.7" height="32.8" id="f_1_">
			<g class="st4">
				<path id="e_1_" class="st1" d="M0,0h27v33.8H0V0z"/>
			</g>
		</mask>
		<path class="st5" d="M26.7,1H14.5c-0.9,0-1.8,0.6-2.1,1.4L1,33.8h12.3L24.7,2.4C25,1.6,25.8,1,26.7,1L26.7,1z"/>
	</g>
</g>
</svg>